<svg xmlns="http://www.w3.org/2000/svg">
  <symbol id="briefcase" viewBox="0 0 24 24">
    <path d="M9 6V4h6v2h4a2 2 0 0 1 2 2v9a2 2 0 0 1-2 2H5a2 2 0 0 1-2-2V8a2 2 0 0 1 2-2h4zm2 0h2V5h-2v1zm-6 4v7h14v-7h-5v2h-4v-2H5z"/>
  </symbol>

  <symbol id="search" viewBox="0 0 24 24">
    <path d="m21 19.6-4.4-4.4a7 7 0 1 0-1.4 1.4l4.4 4.4 1.4-1.4zM5 10a5 5 0 1 1 10 0A5 5 0 0 1 5 10z"/>
  </symbol>

  <symbol id="menu" viewBox="0 0 24 24">
    <path d="M4 6h16v2H4V6zm0 5h16v2H4v-2zm0 5h16v2H4v-2z"/>
  </symbol>

  <symbol id="bell" viewBox="0 0 24 24">
    <path d="M18 9a6 6 0 0 0-12 0c0 7-3 7-3 9h18c0-2-3-2-3-9zm-8 11h4a2 2 0 0 1-4 0z"/>
  </symbol>

  <symbol id="eye" viewBox="0 0 24 24">
    <path d="M12 5C7 5 3.2 8.1 1 12c2.2 3.9 6 7 11 7s8.8-3.1 11-7c-2.2-3.9-6-7-11-7zm0 11a4 4 0 1 1 0-8 4 4 0 0 1 0 8z"/>
  </symbol>
</svg>
